<mxfile host="app.diagrams.net" modified="2022-10-11T02:55:07.127Z" agent="5.0 (Windows NT 10.0; Win64; x64) AppleWebKit/537.36 (KHTML, like Gecko) Chrome/106.0.0.0 Safari/537.36" etag="bPboppIhhz6Ht5U2F13r" version="20.4.0" type="github">
  <diagram id="kk570XNu_HWtteIOADn4" name="Page-1">
    <mxGraphModel dx="2889" dy="1154" grid="1" gridSize="10" guides="1" tooltips="1" connect="1" arrows="1" fold="1" page="1" pageScale="1" pageWidth="827" pageHeight="1169" math="0" shadow="0">
      <root>
        <mxCell id="0" />
        <mxCell id="1" parent="0" />
        <mxCell id="9MTHX9n5Lt5Nb2SYP2qd-3" value="MaintainPartyAPI" style="shape=umlLifeline;perimeter=lifelinePerimeter;whiteSpace=wrap;html=1;container=1;collapsible=0;recursiveResize=0;outlineConnect=0;" parent="1" vertex="1">
          <mxGeometry x="-410" y="240" width="150" height="770" as="geometry" />
        </mxCell>
        <mxCell id="9MTHX9n5Lt5Nb2SYP2qd-28" value="" style="html=1;points=[];perimeter=orthogonalPerimeter;" parent="9MTHX9n5Lt5Nb2SYP2qd-3" vertex="1">
          <mxGeometry x="70" y="230" width="10" height="120" as="geometry" />
        </mxCell>
        <mxCell id="9MTHX9n5Lt5Nb2SYP2qd-29" value="request pary validation" style="edgeStyle=orthogonalEdgeStyle;html=1;align=left;spacingLeft=2;endArrow=block;rounded=0;entryX=1.2;entryY=1;entryDx=0;entryDy=0;entryPerimeter=0;" parent="9MTHX9n5Lt5Nb2SYP2qd-3" target="9MTHX9n5Lt5Nb2SYP2qd-28" edge="1">
          <mxGeometry x="-0.6891" relative="1" as="geometry">
            <mxPoint x="75" y="210" as="sourcePoint" />
            <Array as="points">
              <mxPoint x="105" y="210" />
              <mxPoint x="105" y="350" />
            </Array>
            <mxPoint x="81" y="320.9200000000001" as="targetPoint" />
            <mxPoint as="offset" />
          </mxGeometry>
        </mxCell>
        <mxCell id="9MTHX9n5Lt5Nb2SYP2qd-31" value="" style="html=1;points=[];perimeter=orthogonalPerimeter;" parent="9MTHX9n5Lt5Nb2SYP2qd-3" vertex="1">
          <mxGeometry x="70" y="368" width="10" height="60" as="geometry" />
        </mxCell>
        <mxCell id="9MTHX9n5Lt5Nb2SYP2qd-38" value="" style="html=1;points=[];perimeter=orthogonalPerimeter;" parent="9MTHX9n5Lt5Nb2SYP2qd-3" vertex="1">
          <mxGeometry x="70" y="440" width="10" height="150" as="geometry" />
        </mxCell>
        <mxCell id="9MTHX9n5Lt5Nb2SYP2qd-147" value="" style="html=1;points=[];perimeter=orthogonalPerimeter;" parent="9MTHX9n5Lt5Nb2SYP2qd-3" vertex="1">
          <mxGeometry x="70" y="620" width="10" height="80" as="geometry" />
        </mxCell>
        <mxCell id="9MTHX9n5Lt5Nb2SYP2qd-150" value="200 return with APIResponse" style="html=1;verticalAlign=bottom;endArrow=open;dashed=1;endSize=8;rounded=0;" parent="9MTHX9n5Lt5Nb2SYP2qd-3" source="9MTHX9n5Lt5Nb2SYP2qd-147" edge="1">
          <mxGeometry relative="1" as="geometry">
            <mxPoint x="50" y="690" as="sourcePoint" />
            <mxPoint x="-80" y="690" as="targetPoint" />
          </mxGeometry>
        </mxCell>
        <mxCell id="9MTHX9n5Lt5Nb2SYP2qd-253" value="" style="html=1;points=[];perimeter=orthogonalPerimeter;" parent="9MTHX9n5Lt5Nb2SYP2qd-3" vertex="1">
          <mxGeometry x="70" y="180" width="10" height="40" as="geometry" />
        </mxCell>
        <mxCell id="9MTHX9n5Lt5Nb2SYP2qd-254" value="JWT Validation" style="edgeStyle=orthogonalEdgeStyle;html=1;align=left;spacingLeft=2;endArrow=block;rounded=0;entryX=1;entryY=0;" parent="9MTHX9n5Lt5Nb2SYP2qd-3" target="9MTHX9n5Lt5Nb2SYP2qd-253" edge="1">
          <mxGeometry relative="1" as="geometry">
            <mxPoint x="75" y="160" as="sourcePoint" />
            <Array as="points">
              <mxPoint x="105" y="160" />
            </Array>
          </mxGeometry>
        </mxCell>
        <mxCell id="9MTHX9n5Lt5Nb2SYP2qd-15" value="/v3/parites" style="text;html=1;align=center;verticalAlign=middle;resizable=0;points=[];autosize=1;strokeColor=none;fillColor=none;" parent="9MTHX9n5Lt5Nb2SYP2qd-3" vertex="1">
          <mxGeometry x="-43" y="120" width="80" height="30" as="geometry" />
        </mxCell>
        <mxCell id="9MTHX9n5Lt5Nb2SYP2qd-5" value="rhdm-rule-engine" style="shape=umlLifeline;perimeter=lifelinePerimeter;whiteSpace=wrap;html=1;container=1;collapsible=0;recursiveResize=0;outlineConnect=0;" parent="1" vertex="1">
          <mxGeometry x="-220" y="240" width="100" height="710" as="geometry" />
        </mxCell>
        <mxCell id="9MTHX9n5Lt5Nb2SYP2qd-35" value="return APIResponse with idempotency false or null" style="html=1;verticalAlign=bottom;endArrow=open;dashed=1;endSize=8;rounded=0;" parent="9MTHX9n5Lt5Nb2SYP2qd-5" source="9MTHX9n5Lt5Nb2SYP2qd-36" edge="1">
          <mxGeometry relative="1" as="geometry">
            <mxPoint x="250" y="418" as="sourcePoint" />
            <mxPoint x="-110" y="420" as="targetPoint" />
          </mxGeometry>
        </mxCell>
        <mxCell id="9MTHX9n5Lt5Nb2SYP2qd-22" value="" style="html=1;points=[];perimeter=orthogonalPerimeter;" parent="9MTHX9n5Lt5Nb2SYP2qd-5" vertex="1">
          <mxGeometry x="45" y="269" width="10" height="31" as="geometry" />
        </mxCell>
        <mxCell id="9MTHX9n5Lt5Nb2SYP2qd-159" value="return" style="html=1;verticalAlign=bottom;endArrow=open;dashed=1;endSize=8;rounded=0;startArrow=none;exitX=-0.1;exitY=0.795;exitDx=0;exitDy=0;exitPerimeter=0;" parent="9MTHX9n5Lt5Nb2SYP2qd-5" source="9MTHX9n5Lt5Nb2SYP2qd-152" edge="1">
          <mxGeometry relative="1" as="geometry">
            <mxPoint x="45" y="260" as="sourcePoint" />
            <mxPoint x="-110" y="260" as="targetPoint" />
            <Array as="points">
              <mxPoint x="-70" y="260" />
            </Array>
          </mxGeometry>
        </mxCell>
        <mxCell id="9MTHX9n5Lt5Nb2SYP2qd-6" value="data library api" style="shape=umlLifeline;perimeter=lifelinePerimeter;whiteSpace=wrap;html=1;container=1;collapsible=0;recursiveResize=0;outlineConnect=0;" parent="1" vertex="1">
          <mxGeometry x="-90" y="240" width="100" height="710" as="geometry" />
        </mxCell>
        <mxCell id="9MTHX9n5Lt5Nb2SYP2qd-23" value="" style="html=1;points=[];perimeter=orthogonalPerimeter;" parent="9MTHX9n5Lt5Nb2SYP2qd-6" vertex="1">
          <mxGeometry x="45" y="310" width="10" height="30" as="geometry" />
        </mxCell>
        <mxCell id="9MTHX9n5Lt5Nb2SYP2qd-41" value="" style="edgeStyle=orthogonalEdgeStyle;rounded=0;orthogonalLoop=1;jettySize=auto;html=1;" parent="9MTHX9n5Lt5Nb2SYP2qd-6" target="9MTHX9n5Lt5Nb2SYP2qd-9" edge="1">
          <mxGeometry relative="1" as="geometry">
            <mxPoint x="-240" y="460" as="sourcePoint" />
            <mxPoint x="155" y="459.5" as="targetPoint" />
            <Array as="points">
              <mxPoint x="120" y="460" />
              <mxPoint x="120" y="460" />
            </Array>
          </mxGeometry>
        </mxCell>
        <mxCell id="9MTHX9n5Lt5Nb2SYP2qd-42" value="retrieve the&amp;nbsp; lowest cap cis id" style="edgeLabel;html=1;align=center;verticalAlign=middle;resizable=0;points=[];" parent="9MTHX9n5Lt5Nb2SYP2qd-41" vertex="1" connectable="0">
          <mxGeometry x="-0.0813" y="2" relative="1" as="geometry">
            <mxPoint as="offset" />
          </mxGeometry>
        </mxCell>
        <mxCell id="9MTHX9n5Lt5Nb2SYP2qd-46" value="return valid cap cis id" style="html=1;verticalAlign=bottom;endArrow=open;dashed=1;endSize=8;rounded=0;" parent="9MTHX9n5Lt5Nb2SYP2qd-6" source="9MTHX9n5Lt5Nb2SYP2qd-10" edge="1">
          <mxGeometry relative="1" as="geometry">
            <mxPoint x="269.5" y="570" as="sourcePoint" />
            <mxPoint x="-240" y="570" as="targetPoint" />
          </mxGeometry>
        </mxCell>
        <mxCell id="9MTHX9n5Lt5Nb2SYP2qd-145" value="" style="edgeStyle=orthogonalEdgeStyle;rounded=0;orthogonalLoop=1;jettySize=auto;html=1;" parent="9MTHX9n5Lt5Nb2SYP2qd-6" edge="1">
          <mxGeometry relative="1" as="geometry">
            <mxPoint x="-240" y="630" as="sourcePoint" />
            <mxPoint x="155" y="630" as="targetPoint" />
            <Array as="points">
              <mxPoint x="50" y="630" />
              <mxPoint x="50" y="630" />
            </Array>
          </mxGeometry>
        </mxCell>
        <mxCell id="9MTHX9n5Lt5Nb2SYP2qd-146" value="update prospect party" style="edgeLabel;html=1;align=center;verticalAlign=middle;resizable=0;points=[];" parent="9MTHX9n5Lt5Nb2SYP2qd-145" vertex="1" connectable="0">
          <mxGeometry x="-0.0813" y="2" relative="1" as="geometry">
            <mxPoint as="offset" />
          </mxGeometry>
        </mxCell>
        <mxCell id="9MTHX9n5Lt5Nb2SYP2qd-149" value="return APIResponse with profileIds" style="html=1;verticalAlign=bottom;endArrow=open;dashed=1;endSize=8;rounded=0;" parent="9MTHX9n5Lt5Nb2SYP2qd-6" edge="1">
          <mxGeometry relative="1" as="geometry">
            <mxPoint x="155" y="670" as="sourcePoint" />
            <mxPoint x="-240" y="670" as="targetPoint" />
          </mxGeometry>
        </mxCell>
        <mxCell id="9MTHX9n5Lt5Nb2SYP2qd-152" value="" style="html=1;points=[];perimeter=orthogonalPerimeter;" parent="9MTHX9n5Lt5Nb2SYP2qd-6" vertex="1">
          <mxGeometry x="45" y="220" width="10" height="49" as="geometry" />
        </mxCell>
        <mxCell id="9MTHX9n5Lt5Nb2SYP2qd-162" value="" style="edgeStyle=orthogonalEdgeStyle;rounded=0;orthogonalLoop=1;jettySize=auto;html=1;" parent="9MTHX9n5Lt5Nb2SYP2qd-6" target="9MTHX9n5Lt5Nb2SYP2qd-152" edge="1">
          <mxGeometry relative="1" as="geometry">
            <mxPoint x="-240" y="230" as="sourcePoint" />
            <mxPoint x="155" y="230" as="targetPoint" />
            <Array as="points">
              <mxPoint x="-40" y="230" />
              <mxPoint x="-40" y="230" />
            </Array>
          </mxGeometry>
        </mxCell>
        <mxCell id="9MTHX9n5Lt5Nb2SYP2qd-163" value="standardise party" style="edgeLabel;html=1;align=center;verticalAlign=middle;resizable=0;points=[];" parent="9MTHX9n5Lt5Nb2SYP2qd-162" vertex="1" connectable="0">
          <mxGeometry x="-0.0813" y="2" relative="1" as="geometry">
            <mxPoint as="offset" />
          </mxGeometry>
        </mxCell>
        <mxCell id="9MTHX9n5Lt5Nb2SYP2qd-12" value="" style="edgeStyle=orthogonalEdgeStyle;rounded=0;orthogonalLoop=1;jettySize=auto;html=1;entryX=-0.1;entryY=0.025;entryDx=0;entryDy=0;entryPerimeter=0;" parent="1" edge="1">
          <mxGeometry relative="1" as="geometry">
            <mxPoint x="-490.5" y="392" as="sourcePoint" />
            <mxPoint x="-341" y="391.875" as="targetPoint" />
            <Array as="points">
              <mxPoint x="-436" y="392" />
              <mxPoint x="-436" y="392" />
            </Array>
          </mxGeometry>
        </mxCell>
        <mxCell id="9MTHX9n5Lt5Nb2SYP2qd-7" value="CRM" style="shape=umlLifeline;perimeter=lifelinePerimeter;whiteSpace=wrap;html=1;container=1;collapsible=0;recursiveResize=0;outlineConnect=0;" parent="1" vertex="1">
          <mxGeometry x="-540" y="240" width="100" height="760" as="geometry" />
        </mxCell>
        <mxCell id="9MTHX9n5Lt5Nb2SYP2qd-8" value="mdm service" style="shape=umlLifeline;perimeter=lifelinePerimeter;whiteSpace=wrap;html=1;container=1;collapsible=0;recursiveResize=0;outlineConnect=0;" parent="1" vertex="1">
          <mxGeometry x="20" y="240" width="100" height="710" as="geometry" />
        </mxCell>
        <mxCell id="9MTHX9n5Lt5Nb2SYP2qd-36" value="" style="html=1;points=[];perimeter=orthogonalPerimeter;" parent="9MTHX9n5Lt5Nb2SYP2qd-8" vertex="1">
          <mxGeometry x="45" y="373" width="10" height="50" as="geometry" />
        </mxCell>
        <mxCell id="9MTHX9n5Lt5Nb2SYP2qd-148" value="" style="html=1;points=[];perimeter=orthogonalPerimeter;" parent="9MTHX9n5Lt5Nb2SYP2qd-8" vertex="1">
          <mxGeometry x="45" y="620" width="10" height="50" as="geometry" />
        </mxCell>
        <mxCell id="Aiy4v6YhbDX5NOyPK0sm-3" value="" style="edgeStyle=orthogonalEdgeStyle;rounded=0;orthogonalLoop=1;jettySize=auto;html=1;" edge="1" parent="9MTHX9n5Lt5Nb2SYP2qd-8" target="9MTHX9n5Lt5Nb2SYP2qd-6">
          <mxGeometry relative="1" as="geometry">
            <mxPoint x="-350" y="310" as="sourcePoint" />
            <mxPoint x="45" y="310" as="targetPoint" />
            <Array as="points">
              <mxPoint x="-140" y="310" />
              <mxPoint x="-140" y="310" />
            </Array>
          </mxGeometry>
        </mxCell>
        <mxCell id="Aiy4v6YhbDX5NOyPK0sm-4" value="standardisePhoneWithRHDM" style="edgeLabel;html=1;align=center;verticalAlign=middle;resizable=0;points=[];" vertex="1" connectable="0" parent="Aiy4v6YhbDX5NOyPK0sm-3">
          <mxGeometry x="-0.0813" y="2" relative="1" as="geometry">
            <mxPoint as="offset" />
          </mxGeometry>
        </mxCell>
        <mxCell id="9MTHX9n5Lt5Nb2SYP2qd-9" value="retrieve party service" style="shape=umlLifeline;perimeter=lifelinePerimeter;whiteSpace=wrap;html=1;container=1;collapsible=0;recursiveResize=0;outlineConnect=0;" parent="1" vertex="1">
          <mxGeometry x="130" y="240" width="100" height="710" as="geometry" />
        </mxCell>
        <mxCell id="9MTHX9n5Lt5Nb2SYP2qd-39" value="" style="html=1;points=[];perimeter=orthogonalPerimeter;" parent="9MTHX9n5Lt5Nb2SYP2qd-9" vertex="1">
          <mxGeometry x="45" y="450" width="10" height="60" as="geometry" />
        </mxCell>
        <mxCell id="9MTHX9n5Lt5Nb2SYP2qd-10" value="APIc CAP" style="shape=umlLifeline;perimeter=lifelinePerimeter;whiteSpace=wrap;html=1;container=1;collapsible=0;recursiveResize=0;outlineConnect=0;" parent="1" vertex="1">
          <mxGeometry x="240" y="240" width="100" height="710" as="geometry" />
        </mxCell>
        <mxCell id="9MTHX9n5Lt5Nb2SYP2qd-40" value="" style="html=1;points=[];perimeter=orthogonalPerimeter;" parent="9MTHX9n5Lt5Nb2SYP2qd-10" vertex="1">
          <mxGeometry x="45" y="520" width="10" height="60" as="geometry" />
        </mxCell>
        <mxCell id="9MTHX9n5Lt5Nb2SYP2qd-21" value="" style="edgeStyle=orthogonalEdgeStyle;rounded=0;orthogonalLoop=1;jettySize=auto;html=1;entryX=0.1;entryY=0.16;entryDx=0;entryDy=0;entryPerimeter=0;exitX=1.2;exitY=0.318;exitDx=0;exitDy=0;exitPerimeter=0;" parent="1" source="9MTHX9n5Lt5Nb2SYP2qd-28" target="9MTHX9n5Lt5Nb2SYP2qd-22" edge="1">
          <mxGeometry relative="1" as="geometry">
            <mxPoint x="-328" y="495.6600000000001" as="sourcePoint" />
            <mxPoint x="-204" y="489" as="targetPoint" />
            <Array as="points">
              <mxPoint x="-328" y="514" />
            </Array>
          </mxGeometry>
        </mxCell>
        <mxCell id="9MTHX9n5Lt5Nb2SYP2qd-151" value="validate party" style="edgeLabel;html=1;align=center;verticalAlign=middle;resizable=0;points=[];" parent="9MTHX9n5Lt5Nb2SYP2qd-21" vertex="1" connectable="0">
          <mxGeometry x="-0.184" y="3" relative="1" as="geometry">
            <mxPoint as="offset" />
          </mxGeometry>
        </mxCell>
        <mxCell id="9MTHX9n5Lt5Nb2SYP2qd-25" value="return" style="html=1;verticalAlign=bottom;endArrow=open;dashed=1;endSize=8;rounded=0;startArrow=none;exitX=0.2;exitY=0.903;exitDx=0;exitDy=0;exitPerimeter=0;" parent="1" source="9MTHX9n5Lt5Nb2SYP2qd-22" edge="1">
          <mxGeometry relative="1" as="geometry">
            <mxPoint x="-95" y="537" as="sourcePoint" />
            <mxPoint x="-330" y="537" as="targetPoint" />
            <Array as="points">
              <mxPoint x="-210" y="537" />
            </Array>
          </mxGeometry>
        </mxCell>
        <mxCell id="9MTHX9n5Lt5Nb2SYP2qd-34" value="" style="edgeStyle=orthogonalEdgeStyle;rounded=0;orthogonalLoop=1;jettySize=auto;html=1;" parent="1" target="9MTHX9n5Lt5Nb2SYP2qd-36" edge="1">
          <mxGeometry relative="1" as="geometry">
            <mxPoint x="-330" y="618" as="sourcePoint" />
            <mxPoint x="110" y="618" as="targetPoint" />
            <Array as="points">
              <mxPoint x="20" y="618" />
              <mxPoint x="20" y="618" />
            </Array>
          </mxGeometry>
        </mxCell>
        <mxCell id="9MTHX9n5Lt5Nb2SYP2qd-37" value="create prospect party" style="edgeLabel;html=1;align=center;verticalAlign=middle;resizable=0;points=[];" parent="9MTHX9n5Lt5Nb2SYP2qd-34" vertex="1" connectable="0">
          <mxGeometry x="-0.0813" y="2" relative="1" as="geometry">
            <mxPoint as="offset" />
          </mxGeometry>
        </mxCell>
        <mxCell id="9MTHX9n5Lt5Nb2SYP2qd-26" value="return" style="html=1;verticalAlign=bottom;endArrow=open;dashed=1;endSize=8;rounded=0;entryX=1.3;entryY=0.9;entryDx=0;entryDy=0;entryPerimeter=0;exitX=0.2;exitY=0.9;exitDx=0;exitDy=0;exitPerimeter=0;" parent="1" source="9MTHX9n5Lt5Nb2SYP2qd-23" target="9MTHX9n5Lt5Nb2SYP2qd-28" edge="1">
          <mxGeometry relative="1" as="geometry">
            <mxPoint x="19.5" y="559" as="sourcePoint" />
            <mxPoint x="-330" y="559" as="targetPoint" />
            <Array as="points" />
          </mxGeometry>
        </mxCell>
        <mxCell id="9MTHX9n5Lt5Nb2SYP2qd-43" value="404 return null or empty cap cis id" style="html=1;verticalAlign=bottom;endArrow=open;dashed=1;endSize=8;rounded=0;entryX=1.2;entryY=0.4;entryDx=0;entryDy=0;entryPerimeter=0;" parent="1" source="9MTHX9n5Lt5Nb2SYP2qd-9" target="9MTHX9n5Lt5Nb2SYP2qd-38" edge="1">
          <mxGeometry relative="1" as="geometry">
            <mxPoint x="45" y="740" as="sourcePoint" />
            <mxPoint x="-410" y="740" as="targetPoint" />
          </mxGeometry>
        </mxCell>
        <mxCell id="9MTHX9n5Lt5Nb2SYP2qd-44" value="" style="edgeStyle=orthogonalEdgeStyle;rounded=0;orthogonalLoop=1;jettySize=auto;html=1;exitX=1.1;exitY=0.64;exitDx=0;exitDy=0;exitPerimeter=0;" parent="1" source="9MTHX9n5Lt5Nb2SYP2qd-38" target="9MTHX9n5Lt5Nb2SYP2qd-10" edge="1">
          <mxGeometry relative="1" as="geometry">
            <mxPoint x="-390" y="770" as="sourcePoint" />
            <mxPoint x="179.5" y="770" as="targetPoint" />
            <Array as="points">
              <mxPoint x="-329" y="770" />
            </Array>
          </mxGeometry>
        </mxCell>
        <mxCell id="9MTHX9n5Lt5Nb2SYP2qd-45" value="create cap profile" style="edgeLabel;html=1;align=center;verticalAlign=middle;resizable=0;points=[];" parent="9MTHX9n5Lt5Nb2SYP2qd-44" vertex="1" connectable="0">
          <mxGeometry x="-0.0813" y="2" relative="1" as="geometry">
            <mxPoint as="offset" />
          </mxGeometry>
        </mxCell>
        <mxCell id="9MTHX9n5Lt5Nb2SYP2qd-256" value="MaintainPartyAPI" style="shape=umlLifeline;perimeter=lifelinePerimeter;whiteSpace=wrap;html=1;container=1;collapsible=0;recursiveResize=0;outlineConnect=0;" parent="1" vertex="1">
          <mxGeometry x="-400" y="1200" width="150" height="770" as="geometry" />
        </mxCell>
        <mxCell id="9MTHX9n5Lt5Nb2SYP2qd-257" value="" style="html=1;points=[];perimeter=orthogonalPerimeter;" parent="9MTHX9n5Lt5Nb2SYP2qd-256" vertex="1">
          <mxGeometry x="70" y="230" width="10" height="120" as="geometry" />
        </mxCell>
        <mxCell id="9MTHX9n5Lt5Nb2SYP2qd-258" value="request pary validation" style="edgeStyle=orthogonalEdgeStyle;html=1;align=left;spacingLeft=2;endArrow=block;rounded=0;entryX=1.2;entryY=1;entryDx=0;entryDy=0;entryPerimeter=0;" parent="9MTHX9n5Lt5Nb2SYP2qd-256" target="9MTHX9n5Lt5Nb2SYP2qd-257" edge="1">
          <mxGeometry x="-0.3936" y="-5" relative="1" as="geometry">
            <mxPoint x="75" y="210" as="sourcePoint" />
            <Array as="points">
              <mxPoint x="105" y="210" />
              <mxPoint x="105" y="350" />
            </Array>
            <mxPoint x="81" y="320.9200000000001" as="targetPoint" />
            <mxPoint as="offset" />
          </mxGeometry>
        </mxCell>
        <mxCell id="9MTHX9n5Lt5Nb2SYP2qd-259" value="" style="html=1;points=[];perimeter=orthogonalPerimeter;" parent="9MTHX9n5Lt5Nb2SYP2qd-256" vertex="1">
          <mxGeometry x="70" y="368" width="10" height="60" as="geometry" />
        </mxCell>
        <mxCell id="9MTHX9n5Lt5Nb2SYP2qd-260" value="" style="html=1;points=[];perimeter=orthogonalPerimeter;" parent="9MTHX9n5Lt5Nb2SYP2qd-256" vertex="1">
          <mxGeometry x="70" y="440" width="10" height="80" as="geometry" />
        </mxCell>
        <mxCell id="9MTHX9n5Lt5Nb2SYP2qd-261" value="" style="html=1;points=[];perimeter=orthogonalPerimeter;" parent="9MTHX9n5Lt5Nb2SYP2qd-256" vertex="1">
          <mxGeometry x="70" y="554" width="10" height="80" as="geometry" />
        </mxCell>
        <mxCell id="9MTHX9n5Lt5Nb2SYP2qd-262" value="200 return with APIResponse" style="html=1;verticalAlign=bottom;endArrow=open;dashed=1;endSize=8;rounded=0;" parent="9MTHX9n5Lt5Nb2SYP2qd-256" source="9MTHX9n5Lt5Nb2SYP2qd-261" edge="1">
          <mxGeometry relative="1" as="geometry">
            <mxPoint x="50" y="624" as="sourcePoint" />
            <mxPoint x="-80" y="624" as="targetPoint" />
          </mxGeometry>
        </mxCell>
        <mxCell id="9MTHX9n5Lt5Nb2SYP2qd-263" value="" style="html=1;points=[];perimeter=orthogonalPerimeter;" parent="9MTHX9n5Lt5Nb2SYP2qd-256" vertex="1">
          <mxGeometry x="70" y="180" width="10" height="40" as="geometry" />
        </mxCell>
        <mxCell id="9MTHX9n5Lt5Nb2SYP2qd-264" value="JWT Validation" style="edgeStyle=orthogonalEdgeStyle;html=1;align=left;spacingLeft=2;endArrow=block;rounded=0;entryX=1;entryY=0;" parent="9MTHX9n5Lt5Nb2SYP2qd-256" target="9MTHX9n5Lt5Nb2SYP2qd-263" edge="1">
          <mxGeometry relative="1" as="geometry">
            <mxPoint x="75" y="160" as="sourcePoint" />
            <Array as="points">
              <mxPoint x="105" y="160" />
            </Array>
          </mxGeometry>
        </mxCell>
        <mxCell id="9MTHX9n5Lt5Nb2SYP2qd-265" value="/v3/parites" style="text;html=1;align=center;verticalAlign=middle;resizable=0;points=[];autosize=1;strokeColor=none;fillColor=none;" parent="9MTHX9n5Lt5Nb2SYP2qd-256" vertex="1">
          <mxGeometry x="-43" y="120" width="80" height="30" as="geometry" />
        </mxCell>
        <mxCell id="9MTHX9n5Lt5Nb2SYP2qd-266" value="rhdm-rule-engine" style="shape=umlLifeline;perimeter=lifelinePerimeter;whiteSpace=wrap;html=1;container=1;collapsible=0;recursiveResize=0;outlineConnect=0;" parent="1" vertex="1">
          <mxGeometry x="-210" y="1200" width="100" height="710" as="geometry" />
        </mxCell>
        <mxCell id="9MTHX9n5Lt5Nb2SYP2qd-267" value="return APIResponse with idempotency false or null" style="html=1;verticalAlign=bottom;endArrow=open;dashed=1;endSize=8;rounded=0;" parent="9MTHX9n5Lt5Nb2SYP2qd-266" source="9MTHX9n5Lt5Nb2SYP2qd-284" edge="1">
          <mxGeometry relative="1" as="geometry">
            <mxPoint x="250" y="418" as="sourcePoint" />
            <mxPoint x="-110" y="420" as="targetPoint" />
          </mxGeometry>
        </mxCell>
        <mxCell id="9MTHX9n5Lt5Nb2SYP2qd-268" value="" style="html=1;points=[];perimeter=orthogonalPerimeter;" parent="9MTHX9n5Lt5Nb2SYP2qd-266" vertex="1">
          <mxGeometry x="45" y="269" width="10" height="31" as="geometry" />
        </mxCell>
        <mxCell id="9MTHX9n5Lt5Nb2SYP2qd-269" value="return" style="html=1;verticalAlign=bottom;endArrow=open;dashed=1;endSize=8;rounded=0;startArrow=none;exitX=-0.1;exitY=0.795;exitDx=0;exitDy=0;exitPerimeter=0;" parent="9MTHX9n5Lt5Nb2SYP2qd-266" source="9MTHX9n5Lt5Nb2SYP2qd-278" edge="1">
          <mxGeometry relative="1" as="geometry">
            <mxPoint x="45" y="260" as="sourcePoint" />
            <mxPoint x="-110" y="260" as="targetPoint" />
            <Array as="points">
              <mxPoint x="-70" y="260" />
            </Array>
          </mxGeometry>
        </mxCell>
        <mxCell id="9MTHX9n5Lt5Nb2SYP2qd-270" value="data library api" style="shape=umlLifeline;perimeter=lifelinePerimeter;whiteSpace=wrap;html=1;container=1;collapsible=0;recursiveResize=0;outlineConnect=0;" parent="1" vertex="1">
          <mxGeometry x="-80" y="1200" width="100" height="710" as="geometry" />
        </mxCell>
        <mxCell id="9MTHX9n5Lt5Nb2SYP2qd-271" value="" style="html=1;points=[];perimeter=orthogonalPerimeter;" parent="9MTHX9n5Lt5Nb2SYP2qd-270" vertex="1">
          <mxGeometry x="45" y="310" width="10" height="30" as="geometry" />
        </mxCell>
        <mxCell id="9MTHX9n5Lt5Nb2SYP2qd-272" value="" style="edgeStyle=orthogonalEdgeStyle;rounded=0;orthogonalLoop=1;jettySize=auto;html=1;" parent="9MTHX9n5Lt5Nb2SYP2qd-270" target="9MTHX9n5Lt5Nb2SYP2qd-286" edge="1">
          <mxGeometry relative="1" as="geometry">
            <mxPoint x="-240" y="460" as="sourcePoint" />
            <mxPoint x="155" y="459.5" as="targetPoint" />
            <Array as="points">
              <mxPoint x="120" y="460" />
              <mxPoint x="120" y="460" />
            </Array>
          </mxGeometry>
        </mxCell>
        <mxCell id="9MTHX9n5Lt5Nb2SYP2qd-273" value="retrieve the&amp;nbsp; lowest cap cis id" style="edgeLabel;html=1;align=center;verticalAlign=middle;resizable=0;points=[];" parent="9MTHX9n5Lt5Nb2SYP2qd-272" vertex="1" connectable="0">
          <mxGeometry x="-0.0813" y="2" relative="1" as="geometry">
            <mxPoint as="offset" />
          </mxGeometry>
        </mxCell>
        <mxCell id="9MTHX9n5Lt5Nb2SYP2qd-275" value="" style="edgeStyle=orthogonalEdgeStyle;rounded=0;orthogonalLoop=1;jettySize=auto;html=1;" parent="9MTHX9n5Lt5Nb2SYP2qd-270" edge="1">
          <mxGeometry relative="1" as="geometry">
            <mxPoint x="-240" y="564" as="sourcePoint" />
            <mxPoint x="155" y="564" as="targetPoint" />
            <Array as="points">
              <mxPoint x="50" y="564" />
              <mxPoint x="50" y="564" />
            </Array>
          </mxGeometry>
        </mxCell>
        <mxCell id="9MTHX9n5Lt5Nb2SYP2qd-276" value="update prospect party" style="edgeLabel;html=1;align=center;verticalAlign=middle;resizable=0;points=[];" parent="9MTHX9n5Lt5Nb2SYP2qd-275" vertex="1" connectable="0">
          <mxGeometry x="-0.0813" y="2" relative="1" as="geometry">
            <mxPoint as="offset" />
          </mxGeometry>
        </mxCell>
        <mxCell id="9MTHX9n5Lt5Nb2SYP2qd-277" value="return APIResponse with profileIds" style="html=1;verticalAlign=bottom;endArrow=open;dashed=1;endSize=8;rounded=0;" parent="9MTHX9n5Lt5Nb2SYP2qd-270" edge="1">
          <mxGeometry relative="1" as="geometry">
            <mxPoint x="155" y="604" as="sourcePoint" />
            <mxPoint x="-240" y="604" as="targetPoint" />
          </mxGeometry>
        </mxCell>
        <mxCell id="9MTHX9n5Lt5Nb2SYP2qd-278" value="" style="html=1;points=[];perimeter=orthogonalPerimeter;" parent="9MTHX9n5Lt5Nb2SYP2qd-270" vertex="1">
          <mxGeometry x="45" y="220" width="10" height="49" as="geometry" />
        </mxCell>
        <mxCell id="9MTHX9n5Lt5Nb2SYP2qd-279" value="" style="edgeStyle=orthogonalEdgeStyle;rounded=0;orthogonalLoop=1;jettySize=auto;html=1;" parent="9MTHX9n5Lt5Nb2SYP2qd-270" target="9MTHX9n5Lt5Nb2SYP2qd-278" edge="1">
          <mxGeometry relative="1" as="geometry">
            <mxPoint x="-240" y="230" as="sourcePoint" />
            <mxPoint x="155" y="230" as="targetPoint" />
            <Array as="points">
              <mxPoint x="-40" y="230" />
              <mxPoint x="-40" y="230" />
            </Array>
          </mxGeometry>
        </mxCell>
        <mxCell id="9MTHX9n5Lt5Nb2SYP2qd-280" value="standardise party" style="edgeLabel;html=1;align=center;verticalAlign=middle;resizable=0;points=[];" parent="9MTHX9n5Lt5Nb2SYP2qd-279" vertex="1" connectable="0">
          <mxGeometry x="-0.0813" y="2" relative="1" as="geometry">
            <mxPoint as="offset" />
          </mxGeometry>
        </mxCell>
        <mxCell id="9MTHX9n5Lt5Nb2SYP2qd-281" value="" style="edgeStyle=orthogonalEdgeStyle;rounded=0;orthogonalLoop=1;jettySize=auto;html=1;entryX=-0.1;entryY=0.025;entryDx=0;entryDy=0;entryPerimeter=0;" parent="1" edge="1">
          <mxGeometry relative="1" as="geometry">
            <mxPoint x="-480.5" y="1352" as="sourcePoint" />
            <mxPoint x="-331" y="1351.875" as="targetPoint" />
            <Array as="points">
              <mxPoint x="-426" y="1352" />
              <mxPoint x="-426" y="1352" />
            </Array>
          </mxGeometry>
        </mxCell>
        <mxCell id="9MTHX9n5Lt5Nb2SYP2qd-282" value="CRM" style="shape=umlLifeline;perimeter=lifelinePerimeter;whiteSpace=wrap;html=1;container=1;collapsible=0;recursiveResize=0;outlineConnect=0;" parent="1" vertex="1">
          <mxGeometry x="-530" y="1200" width="100" height="760" as="geometry" />
        </mxCell>
        <mxCell id="9MTHX9n5Lt5Nb2SYP2qd-283" value="mdm service" style="shape=umlLifeline;perimeter=lifelinePerimeter;whiteSpace=wrap;html=1;container=1;collapsible=0;recursiveResize=0;outlineConnect=0;" parent="1" vertex="1">
          <mxGeometry x="30" y="1200" width="100" height="710" as="geometry" />
        </mxCell>
        <mxCell id="9MTHX9n5Lt5Nb2SYP2qd-284" value="" style="html=1;points=[];perimeter=orthogonalPerimeter;" parent="9MTHX9n5Lt5Nb2SYP2qd-283" vertex="1">
          <mxGeometry x="45" y="373" width="10" height="50" as="geometry" />
        </mxCell>
        <mxCell id="9MTHX9n5Lt5Nb2SYP2qd-285" value="" style="html=1;points=[];perimeter=orthogonalPerimeter;" parent="9MTHX9n5Lt5Nb2SYP2qd-283" vertex="1">
          <mxGeometry x="45" y="554" width="10" height="50" as="geometry" />
        </mxCell>
        <mxCell id="9MTHX9n5Lt5Nb2SYP2qd-286" value="retrieve party service" style="shape=umlLifeline;perimeter=lifelinePerimeter;whiteSpace=wrap;html=1;container=1;collapsible=0;recursiveResize=0;outlineConnect=0;" parent="1" vertex="1">
          <mxGeometry x="140" y="1200" width="100" height="710" as="geometry" />
        </mxCell>
        <mxCell id="9MTHX9n5Lt5Nb2SYP2qd-287" value="" style="html=1;points=[];perimeter=orthogonalPerimeter;" parent="9MTHX9n5Lt5Nb2SYP2qd-286" vertex="1">
          <mxGeometry x="45" y="450" width="10" height="60" as="geometry" />
        </mxCell>
        <mxCell id="9MTHX9n5Lt5Nb2SYP2qd-290" value="" style="edgeStyle=orthogonalEdgeStyle;rounded=0;orthogonalLoop=1;jettySize=auto;html=1;entryX=0.1;entryY=0.16;entryDx=0;entryDy=0;entryPerimeter=0;exitX=1.2;exitY=0.318;exitDx=0;exitDy=0;exitPerimeter=0;" parent="1" source="9MTHX9n5Lt5Nb2SYP2qd-257" target="9MTHX9n5Lt5Nb2SYP2qd-268" edge="1">
          <mxGeometry relative="1" as="geometry">
            <mxPoint x="-318" y="1455.66" as="sourcePoint" />
            <mxPoint x="-194" y="1449" as="targetPoint" />
            <Array as="points">
              <mxPoint x="-318" y="1474" />
            </Array>
          </mxGeometry>
        </mxCell>
        <mxCell id="9MTHX9n5Lt5Nb2SYP2qd-291" value="validate party" style="edgeLabel;html=1;align=center;verticalAlign=middle;resizable=0;points=[];" parent="9MTHX9n5Lt5Nb2SYP2qd-290" vertex="1" connectable="0">
          <mxGeometry x="-0.184" y="3" relative="1" as="geometry">
            <mxPoint as="offset" />
          </mxGeometry>
        </mxCell>
        <mxCell id="9MTHX9n5Lt5Nb2SYP2qd-292" value="return" style="html=1;verticalAlign=bottom;endArrow=open;dashed=1;endSize=8;rounded=0;startArrow=none;exitX=0.2;exitY=0.903;exitDx=0;exitDy=0;exitPerimeter=0;" parent="1" source="9MTHX9n5Lt5Nb2SYP2qd-268" edge="1">
          <mxGeometry relative="1" as="geometry">
            <mxPoint x="-85" y="1497" as="sourcePoint" />
            <mxPoint x="-320" y="1497" as="targetPoint" />
            <Array as="points">
              <mxPoint x="-200" y="1497" />
            </Array>
          </mxGeometry>
        </mxCell>
        <mxCell id="9MTHX9n5Lt5Nb2SYP2qd-293" value="" style="edgeStyle=orthogonalEdgeStyle;rounded=0;orthogonalLoop=1;jettySize=auto;html=1;" parent="1" target="9MTHX9n5Lt5Nb2SYP2qd-284" edge="1">
          <mxGeometry relative="1" as="geometry">
            <mxPoint x="-320" y="1578" as="sourcePoint" />
            <mxPoint x="120" y="1578" as="targetPoint" />
            <Array as="points">
              <mxPoint x="30" y="1578" />
              <mxPoint x="30" y="1578" />
            </Array>
          </mxGeometry>
        </mxCell>
        <mxCell id="9MTHX9n5Lt5Nb2SYP2qd-294" value="create prospect party" style="edgeLabel;html=1;align=center;verticalAlign=middle;resizable=0;points=[];" parent="9MTHX9n5Lt5Nb2SYP2qd-293" vertex="1" connectable="0">
          <mxGeometry x="-0.0813" y="2" relative="1" as="geometry">
            <mxPoint as="offset" />
          </mxGeometry>
        </mxCell>
        <mxCell id="9MTHX9n5Lt5Nb2SYP2qd-295" value="return" style="html=1;verticalAlign=bottom;endArrow=open;dashed=1;endSize=8;rounded=0;entryX=1.3;entryY=0.9;entryDx=0;entryDy=0;entryPerimeter=0;exitX=0.2;exitY=0.9;exitDx=0;exitDy=0;exitPerimeter=0;" parent="1" source="9MTHX9n5Lt5Nb2SYP2qd-271" target="9MTHX9n5Lt5Nb2SYP2qd-257" edge="1">
          <mxGeometry relative="1" as="geometry">
            <mxPoint x="29.5" y="1519" as="sourcePoint" />
            <mxPoint x="-320" y="1519" as="targetPoint" />
            <Array as="points" />
          </mxGeometry>
        </mxCell>
        <mxCell id="9MTHX9n5Lt5Nb2SYP2qd-296" value="return cap cis id" style="html=1;verticalAlign=bottom;endArrow=open;dashed=1;endSize=8;rounded=0;entryX=1.3;entryY=0.838;entryDx=0;entryDy=0;entryPerimeter=0;" parent="1" source="9MTHX9n5Lt5Nb2SYP2qd-286" target="9MTHX9n5Lt5Nb2SYP2qd-260" edge="1">
          <mxGeometry relative="1" as="geometry">
            <mxPoint x="55" y="1700" as="sourcePoint" />
            <mxPoint x="-400" y="1700" as="targetPoint" />
            <Array as="points">
              <mxPoint x="-70" y="1710" />
            </Array>
          </mxGeometry>
        </mxCell>
        <mxCell id="9MTHX9n5Lt5Nb2SYP2qd-335" value="MaintainPartyAPI" style="shape=umlLifeline;perimeter=lifelinePerimeter;whiteSpace=wrap;html=1;container=1;collapsible=0;recursiveResize=0;outlineConnect=0;" parent="1" vertex="1">
          <mxGeometry x="-350" y="2110" width="150" height="540" as="geometry" />
        </mxCell>
        <mxCell id="9MTHX9n5Lt5Nb2SYP2qd-336" value="" style="html=1;points=[];perimeter=orthogonalPerimeter;" parent="9MTHX9n5Lt5Nb2SYP2qd-335" vertex="1">
          <mxGeometry x="70" y="230" width="10" height="120" as="geometry" />
        </mxCell>
        <mxCell id="9MTHX9n5Lt5Nb2SYP2qd-337" value="request pary validation" style="edgeStyle=orthogonalEdgeStyle;html=1;align=left;spacingLeft=2;endArrow=block;rounded=0;entryX=1.2;entryY=1;entryDx=0;entryDy=0;entryPerimeter=0;" parent="9MTHX9n5Lt5Nb2SYP2qd-335" target="9MTHX9n5Lt5Nb2SYP2qd-336" edge="1">
          <mxGeometry x="-0.3936" y="-5" relative="1" as="geometry">
            <mxPoint x="75" y="210" as="sourcePoint" />
            <Array as="points">
              <mxPoint x="105" y="210" />
              <mxPoint x="105" y="350" />
            </Array>
            <mxPoint x="81" y="320.9200000000001" as="targetPoint" />
            <mxPoint as="offset" />
          </mxGeometry>
        </mxCell>
        <mxCell id="9MTHX9n5Lt5Nb2SYP2qd-338" value="" style="html=1;points=[];perimeter=orthogonalPerimeter;" parent="9MTHX9n5Lt5Nb2SYP2qd-335" vertex="1">
          <mxGeometry x="70" y="368" width="10" height="82" as="geometry" />
        </mxCell>
        <mxCell id="9MTHX9n5Lt5Nb2SYP2qd-342" value="" style="html=1;points=[];perimeter=orthogonalPerimeter;" parent="9MTHX9n5Lt5Nb2SYP2qd-335" vertex="1">
          <mxGeometry x="70" y="180" width="10" height="40" as="geometry" />
        </mxCell>
        <mxCell id="9MTHX9n5Lt5Nb2SYP2qd-343" value="JWT Validation" style="edgeStyle=orthogonalEdgeStyle;html=1;align=left;spacingLeft=2;endArrow=block;rounded=0;entryX=1;entryY=0;" parent="9MTHX9n5Lt5Nb2SYP2qd-335" target="9MTHX9n5Lt5Nb2SYP2qd-342" edge="1">
          <mxGeometry relative="1" as="geometry">
            <mxPoint x="75" y="160" as="sourcePoint" />
            <Array as="points">
              <mxPoint x="105" y="160" />
            </Array>
          </mxGeometry>
        </mxCell>
        <mxCell id="9MTHX9n5Lt5Nb2SYP2qd-344" value="/v3/parites" style="text;html=1;align=center;verticalAlign=middle;resizable=0;points=[];autosize=1;strokeColor=none;fillColor=none;" parent="9MTHX9n5Lt5Nb2SYP2qd-335" vertex="1">
          <mxGeometry x="-43" y="120" width="80" height="30" as="geometry" />
        </mxCell>
        <mxCell id="9MTHX9n5Lt5Nb2SYP2qd-373" value="201 return with APIResponse" style="html=1;verticalAlign=bottom;endArrow=open;dashed=1;endSize=8;rounded=0;" parent="9MTHX9n5Lt5Nb2SYP2qd-335" edge="1">
          <mxGeometry relative="1" as="geometry">
            <mxPoint x="71" y="440" as="sourcePoint" />
            <mxPoint x="-79" y="440" as="targetPoint" />
          </mxGeometry>
        </mxCell>
        <mxCell id="9MTHX9n5Lt5Nb2SYP2qd-345" value="rhdm-rule-engine" style="shape=umlLifeline;perimeter=lifelinePerimeter;whiteSpace=wrap;html=1;container=1;collapsible=0;recursiveResize=0;outlineConnect=0;" parent="1" vertex="1">
          <mxGeometry x="-160" y="2110" width="100" height="540" as="geometry" />
        </mxCell>
        <mxCell id="9MTHX9n5Lt5Nb2SYP2qd-346" value="return APIResponse with idempotency true" style="html=1;verticalAlign=bottom;endArrow=open;dashed=1;endSize=8;rounded=0;" parent="9MTHX9n5Lt5Nb2SYP2qd-345" source="9MTHX9n5Lt5Nb2SYP2qd-362" edge="1">
          <mxGeometry relative="1" as="geometry">
            <mxPoint x="250" y="418" as="sourcePoint" />
            <mxPoint x="-110" y="420" as="targetPoint" />
          </mxGeometry>
        </mxCell>
        <mxCell id="9MTHX9n5Lt5Nb2SYP2qd-347" value="" style="html=1;points=[];perimeter=orthogonalPerimeter;" parent="9MTHX9n5Lt5Nb2SYP2qd-345" vertex="1">
          <mxGeometry x="45" y="269" width="10" height="31" as="geometry" />
        </mxCell>
        <mxCell id="9MTHX9n5Lt5Nb2SYP2qd-348" value="return" style="html=1;verticalAlign=bottom;endArrow=open;dashed=1;endSize=8;rounded=0;startArrow=none;exitX=-0.1;exitY=0.795;exitDx=0;exitDy=0;exitPerimeter=0;" parent="9MTHX9n5Lt5Nb2SYP2qd-345" source="9MTHX9n5Lt5Nb2SYP2qd-356" edge="1">
          <mxGeometry relative="1" as="geometry">
            <mxPoint x="45" y="260" as="sourcePoint" />
            <mxPoint x="-110" y="260" as="targetPoint" />
            <Array as="points">
              <mxPoint x="-70" y="260" />
            </Array>
          </mxGeometry>
        </mxCell>
        <mxCell id="9MTHX9n5Lt5Nb2SYP2qd-349" value="data library api" style="shape=umlLifeline;perimeter=lifelinePerimeter;whiteSpace=wrap;html=1;container=1;collapsible=0;recursiveResize=0;outlineConnect=0;" parent="1" vertex="1">
          <mxGeometry x="-30" y="2110" width="100" height="540" as="geometry" />
        </mxCell>
        <mxCell id="9MTHX9n5Lt5Nb2SYP2qd-350" value="" style="html=1;points=[];perimeter=orthogonalPerimeter;" parent="9MTHX9n5Lt5Nb2SYP2qd-349" vertex="1">
          <mxGeometry x="45" y="310" width="10" height="30" as="geometry" />
        </mxCell>
        <mxCell id="9MTHX9n5Lt5Nb2SYP2qd-356" value="" style="html=1;points=[];perimeter=orthogonalPerimeter;" parent="9MTHX9n5Lt5Nb2SYP2qd-349" vertex="1">
          <mxGeometry x="45" y="220" width="10" height="49" as="geometry" />
        </mxCell>
        <mxCell id="9MTHX9n5Lt5Nb2SYP2qd-357" value="" style="edgeStyle=orthogonalEdgeStyle;rounded=0;orthogonalLoop=1;jettySize=auto;html=1;" parent="9MTHX9n5Lt5Nb2SYP2qd-349" target="9MTHX9n5Lt5Nb2SYP2qd-356" edge="1">
          <mxGeometry relative="1" as="geometry">
            <mxPoint x="-240" y="230" as="sourcePoint" />
            <mxPoint x="155" y="230" as="targetPoint" />
            <Array as="points">
              <mxPoint x="-40" y="230" />
              <mxPoint x="-40" y="230" />
            </Array>
          </mxGeometry>
        </mxCell>
        <mxCell id="9MTHX9n5Lt5Nb2SYP2qd-358" value="standardise party" style="edgeLabel;html=1;align=center;verticalAlign=middle;resizable=0;points=[];" parent="9MTHX9n5Lt5Nb2SYP2qd-357" vertex="1" connectable="0">
          <mxGeometry x="-0.0813" y="2" relative="1" as="geometry">
            <mxPoint as="offset" />
          </mxGeometry>
        </mxCell>
        <mxCell id="9MTHX9n5Lt5Nb2SYP2qd-359" value="" style="edgeStyle=orthogonalEdgeStyle;rounded=0;orthogonalLoop=1;jettySize=auto;html=1;entryX=-0.1;entryY=0.025;entryDx=0;entryDy=0;entryPerimeter=0;" parent="1" edge="1">
          <mxGeometry relative="1" as="geometry">
            <mxPoint x="-430.5" y="2262" as="sourcePoint" />
            <mxPoint x="-281" y="2261.875" as="targetPoint" />
            <Array as="points">
              <mxPoint x="-376" y="2262" />
              <mxPoint x="-376" y="2262" />
            </Array>
          </mxGeometry>
        </mxCell>
        <mxCell id="9MTHX9n5Lt5Nb2SYP2qd-360" value="CRM" style="shape=umlLifeline;perimeter=lifelinePerimeter;whiteSpace=wrap;html=1;container=1;collapsible=0;recursiveResize=0;outlineConnect=0;" parent="1" vertex="1">
          <mxGeometry x="-480" y="2110" width="100" height="540" as="geometry" />
        </mxCell>
        <mxCell id="9MTHX9n5Lt5Nb2SYP2qd-361" value="mdm service" style="shape=umlLifeline;perimeter=lifelinePerimeter;whiteSpace=wrap;html=1;container=1;collapsible=0;recursiveResize=0;outlineConnect=0;" parent="1" vertex="1">
          <mxGeometry x="80" y="2110" width="100" height="540" as="geometry" />
        </mxCell>
        <mxCell id="9MTHX9n5Lt5Nb2SYP2qd-362" value="" style="html=1;points=[];perimeter=orthogonalPerimeter;" parent="9MTHX9n5Lt5Nb2SYP2qd-361" vertex="1">
          <mxGeometry x="45" y="373" width="10" height="50" as="geometry" />
        </mxCell>
        <mxCell id="9MTHX9n5Lt5Nb2SYP2qd-366" value="" style="edgeStyle=orthogonalEdgeStyle;rounded=0;orthogonalLoop=1;jettySize=auto;html=1;entryX=0.1;entryY=0.16;entryDx=0;entryDy=0;entryPerimeter=0;exitX=1.2;exitY=0.318;exitDx=0;exitDy=0;exitPerimeter=0;" parent="1" source="9MTHX9n5Lt5Nb2SYP2qd-336" target="9MTHX9n5Lt5Nb2SYP2qd-347" edge="1">
          <mxGeometry relative="1" as="geometry">
            <mxPoint x="-268" y="2365.66" as="sourcePoint" />
            <mxPoint x="-144" y="2359" as="targetPoint" />
            <Array as="points">
              <mxPoint x="-268" y="2384" />
            </Array>
          </mxGeometry>
        </mxCell>
        <mxCell id="9MTHX9n5Lt5Nb2SYP2qd-367" value="validate party" style="edgeLabel;html=1;align=center;verticalAlign=middle;resizable=0;points=[];" parent="9MTHX9n5Lt5Nb2SYP2qd-366" vertex="1" connectable="0">
          <mxGeometry x="-0.184" y="3" relative="1" as="geometry">
            <mxPoint as="offset" />
          </mxGeometry>
        </mxCell>
        <mxCell id="9MTHX9n5Lt5Nb2SYP2qd-368" value="return" style="html=1;verticalAlign=bottom;endArrow=open;dashed=1;endSize=8;rounded=0;startArrow=none;exitX=0.2;exitY=0.903;exitDx=0;exitDy=0;exitPerimeter=0;" parent="1" source="9MTHX9n5Lt5Nb2SYP2qd-347" edge="1">
          <mxGeometry relative="1" as="geometry">
            <mxPoint x="-35" y="2407" as="sourcePoint" />
            <mxPoint x="-270" y="2407" as="targetPoint" />
            <Array as="points">
              <mxPoint x="-150" y="2407" />
            </Array>
          </mxGeometry>
        </mxCell>
        <mxCell id="9MTHX9n5Lt5Nb2SYP2qd-369" value="" style="edgeStyle=orthogonalEdgeStyle;rounded=0;orthogonalLoop=1;jettySize=auto;html=1;" parent="1" target="9MTHX9n5Lt5Nb2SYP2qd-362" edge="1">
          <mxGeometry relative="1" as="geometry">
            <mxPoint x="-270" y="2488" as="sourcePoint" />
            <mxPoint x="170" y="2488" as="targetPoint" />
            <Array as="points">
              <mxPoint x="80" y="2488" />
              <mxPoint x="80" y="2488" />
            </Array>
          </mxGeometry>
        </mxCell>
        <mxCell id="9MTHX9n5Lt5Nb2SYP2qd-370" value="create prospect party" style="edgeLabel;html=1;align=center;verticalAlign=middle;resizable=0;points=[];" parent="9MTHX9n5Lt5Nb2SYP2qd-369" vertex="1" connectable="0">
          <mxGeometry x="-0.0813" y="2" relative="1" as="geometry">
            <mxPoint as="offset" />
          </mxGeometry>
        </mxCell>
        <mxCell id="9MTHX9n5Lt5Nb2SYP2qd-371" value="return" style="html=1;verticalAlign=bottom;endArrow=open;dashed=1;endSize=8;rounded=0;entryX=1.3;entryY=0.9;entryDx=0;entryDy=0;entryPerimeter=0;exitX=0.2;exitY=0.9;exitDx=0;exitDy=0;exitPerimeter=0;" parent="1" source="9MTHX9n5Lt5Nb2SYP2qd-350" target="9MTHX9n5Lt5Nb2SYP2qd-336" edge="1">
          <mxGeometry relative="1" as="geometry">
            <mxPoint x="79.5" y="2429" as="sourcePoint" />
            <mxPoint x="-270" y="2429" as="targetPoint" />
            <Array as="points" />
          </mxGeometry>
        </mxCell>
      </root>
    </mxGraphModel>
  </diagram>
</mxfile>
